<?xml version="1.0" encoding="UTF-8" standalone="no"?>
<!-- Generator: Adobe Illustrator 17.0.0, SVG Export Plug-In . SVG Version: 6.00 Build 0)  -->

<svg
   xmlns:dc="http://purl.org/dc/elements/1.1/"
   xmlns:cc="http://creativecommons.org/ns#"
   xmlns:rdf="http://www.w3.org/1999/02/22-rdf-syntax-ns#"
   xmlns:svg="http://www.w3.org/2000/svg"
   xmlns="http://www.w3.org/2000/svg"
   xmlns:sodipodi="http://sodipodi.sourceforge.net/DTD/sodipodi-0.dtd"
   xmlns:inkscape="http://www.inkscape.org/namespaces/inkscape"
   version="1.1"
   id="Layer_1"
   x="0px"
   y="0px"
   width="784.90192"
   height="383.53864"
   viewBox="0 0 784.90187 383.53863"
   enable-background="new 0 0 595.28 841.89"
   xml:space="preserve"
   sodipodi:docname="logo-white.svg"
   inkscape:version="0.92.3 (2405546, 2018-03-11)"><metadata
   id="metadata31"><rdf:RDF><cc:Work
       rdf:about=""><dc:format>image/svg+xml</dc:format><dc:type
         rdf:resource="http://purl.org/dc/dcmitype/StillImage" /><dc:title></dc:title></cc:Work></rdf:RDF></metadata><defs
   id="defs29">
	
	
</defs><sodipodi:namedview
   pagecolor="#ffffff"
   bordercolor="#666666"
   borderopacity="1"
   objecttolerance="10"
   gridtolerance="10"
   guidetolerance="10"
   inkscape:pageopacity="0"
   inkscape:pageshadow="2"
   inkscape:window-width="1920"
   inkscape:window-height="1029"
   id="namedview27"
   showgrid="false"
   inkscape:pagecheckerboard="true"
   width="841.89001px"
   fit-margin-top="0"
   fit-margin-left="0"
   fit-margin-right="0"
   fit-margin-bottom="0"
   inkscape:zoom="0.79286936"
   inkscape:cx="355.35922"
   inkscape:cy="62.830225"
   inkscape:window-x="0"
   inkscape:window-y="25"
   inkscape:window-maximized="1"
   inkscape:current-layer="Layer_1" />
<g
   style="fill:#ffffff"
   id="g16"
   transform="matrix(1.5742116,0,0,1.5742116,-75.719578,-472.10677)">
		<path
   style="fill:#ffffff"
   inkscape:connector-curvature="0"
   id="path2"
   d="m 81.445,543.538 c -4.985,0 -9.526,-1.016 -13.623,-3.049 -4.099,-2.031 -7.608,-4.704 -10.525,-8.017 -2.919,-3.31 -5.181,-7.097 -6.787,-11.361 -1.608,-4.261 -2.41,-8.656 -2.41,-13.18 0,-4.589 0.836,-9.016 2.508,-13.28 1.672,-4.261 4.016,-8.016 7.033,-11.262 3.015,-3.246 6.573,-5.836 10.672,-7.77 4.098,-1.934 8.607,-2.902 13.525,-2.902 4.983,0 9.525,1.018 13.623,3.049 4.098,2.033 7.606,4.721 10.525,8.066 2.917,3.344 5.164,7.148 6.738,11.409 1.574,4.264 2.361,8.624 2.361,13.083 0,4.59 -0.837,9 -2.508,13.23 -1.672,4.229 -3.984,7.967 -6.935,11.214 -2.951,3.246 -6.492,5.853 -10.623,7.82 -4.131,1.967 -8.656,2.95 -13.574,2.95 z M 67.576,508.127 c 0,2.362 0.278,4.64 0.836,6.837 0.556,2.198 1.426,4.148 2.606,5.853 1.181,1.706 2.656,3.082 4.427,4.131 1.77,1.05 3.836,1.575 6.197,1.575 2.425,0 4.524,-0.542 6.295,-1.623 1.77,-1.083 3.212,-2.491 4.328,-4.229 1.114,-1.737 1.95,-3.721 2.508,-5.951 0.557,-2.229 0.837,-4.492 0.837,-6.787 0,-2.36 -0.295,-4.639 -0.885,-6.837 -0.59,-2.195 -1.461,-4.131 -2.607,-5.803 -1.148,-1.673 -2.607,-3.016 -4.377,-4.034 -1.77,-1.015 -3.836,-1.525 -6.197,-1.525 -2.426,0 -4.509,0.526 -6.246,1.575 -1.738,1.05 -3.182,2.444 -4.328,4.18 -1.148,1.738 -2.001,3.706 -2.558,5.902 -0.558,2.197 -0.836,4.442 -0.836,6.736 z" />
		<path
   style="fill:#ffffff"
   inkscape:connector-curvature="0"
   id="path4"
   d="m 161.61,526.522 c 2.229,0 4.131,-0.493 5.705,-1.476 1.573,-0.983 2.852,-2.277 3.836,-3.885 0.984,-1.607 1.704,-3.459 2.164,-5.558 0.458,-2.098 0.689,-4.293 0.689,-6.59 V 473.11 h 19.181 v 35.903 c 0,4.854 -0.624,9.393 -1.869,13.623 -1.247,4.231 -3.182,7.887 -5.803,10.968 -2.624,3.084 -5.919,5.508 -9.886,7.279 -3.968,1.77 -8.641,2.656 -14.017,2.656 -5.574,0 -10.345,-0.934 -14.312,-2.803 -3.968,-1.869 -7.229,-4.377 -9.787,-7.524 -2.558,-3.148 -4.426,-6.802 -5.607,-10.968 -1.18,-4.163 -1.77,-8.573 -1.77,-13.23 V 473.11 h 19.181 v 35.903 c 0,2.296 0.229,4.51 0.689,6.64 0.458,2.131 1.18,4 2.164,5.607 0.983,1.608 2.245,2.885 3.787,3.835 1.539,0.952 3.425,1.427 5.655,1.427 z" />
		<path
   style="fill:#ffffff"
   inkscape:connector-curvature="0"
   id="path6"
   d="M 266.367,489.832 H 246.3 v 53.116 H 227.119 V 489.832 H 206.955 V 473.11 h 59.412 z" />
		<path
   style="fill:#ffffff"
   inkscape:connector-curvature="0"
   id="path8"
   d="M 281.219,542.948 V 473.11 H 300.4 v 28.526 l 23.214,-28.526 h 19.672 l -25.378,31.279 27.148,38.559 H 324.99 l -18.394,-27.837 -6.197,7.083 v 20.754 z" />
		<path
   style="fill:#ffffff"
   inkscape:connector-curvature="0"
   id="path10"
   d="m 406.632,526.226 v 16.722 H 356.86 V 473.11 h 48.887 v 16.722 h -29.706 v 9.836 h 25.378 v 15.542 h -25.378 v 11.016 z" />
		<path
   style="fill:#ffffff"
   inkscape:connector-curvature="0"
   id="path12"
   d="M 423.45,542.948 V 473.11 h 30.1 c 3.409,0 6.555,0.705 9.442,2.115 2.885,1.411 5.361,3.246 7.427,5.508 2.065,2.263 3.688,4.854 4.868,7.771 1.18,2.919 1.77,5.853 1.77,8.803 0,3.082 -0.557,6.083 -1.672,9 -1.116,2.919 -2.673,5.508 -4.672,7.77 -2.001,2.263 -4.427,4.067 -7.279,5.411 -2.852,1.344 -5.984,2.016 -9.393,2.016 H 442.63 v 21.443 h -19.18 z m 19.181,-38.164 h 10.132 c 1.18,0 2.277,-0.541 3.295,-1.623 1.016,-1.082 1.525,-3.033 1.525,-5.853 0,-2.885 -0.59,-4.852 -1.77,-5.901 -1.18,-1.048 -2.36,-1.574 -3.541,-1.574 h -9.64 v 14.951 z" />
		<path
   style="fill:#ffffff"
   inkscape:connector-curvature="0"
   id="path14"
   d="m 546.699,489.832 h -20.065 v 53.116 H 507.453 V 489.832 H 487.288 V 473.11 H 546.7 v 16.722 z" />
	</g><g
   style="fill:#ffffff"
   id="g22"
   transform="matrix(1.5742116,0,0,1.5742116,-69.405415,-470.96003)">
		<polygon
   style="fill:#ffffff"
   id="polygon18"
   points="126.123,299.172 126.123,446.972 273.923,446.972 273.923,397.113 166.887,397.113 166.887,349.033 273.923,349.033 273.923,299.172 " />
		<rect
   style="fill:#ffffff"
   id="rect20"
   height="48.080002"
   width="107.036"
   y="349.03299"
   x="273.923" />
	</g>
</svg>